<svg width="0" height="0" style="position:absolute">

  <symbol id="graph-hanion-II" viewBox="0 0 400 250">
    <rect x="0" y="0" width="400" height="250" fill="#FFFFFF" stroke="#000" stroke-width="1"/>
    <line x1="50" y1="220" x2="380" y2="220" stroke="#000" stroke-width="1.5"/> <line x1="50" y1="220" x2="50" y2="20" stroke="#000" stroke-width="1.5"/> <text x="50" y="235" font-family="sans-serif" font-size="10" text-anchor="middle">0</text>
    <text x="80" y="235" font-family="sans-serif" font-size="10" text-anchor="middle">1</text>
    <text x="110" y="235" font-family="sans-serif" font-size="10" text-anchor="middle">2</text>
    <text x="140" y="235" font-family="sans-serif" font-size="10" text-anchor="middle">3</text>
    <text x="170" y="235" font-family="sans-serif" font-size="10" text-anchor="middle">4</text>
    <text x="200" y="235" font-family="sans-serif" font-size="10" text-anchor="middle">5</text>
    <text x="230" y="235" font-family="sans-serif" font-size="10" text-anchor="middle">6</text>
    <text x="260" y="235" font-family="sans-serif" font-size="10" text-anchor="middle">7</text>
    <text x="290" y="235" font-family="sans-serif" font-size="10" text-anchor="middle">8</text>
    <text x="320" y="235" font-family="sans-serif" font-size="10" text-anchor="middle">9</text>
    <text x="350" y="235" font-family="sans-serif" font-size="10" text-anchor="middle">10</text>
    <text x="380" y="235" font-family="sans-serif" font-size="10" text-anchor="middle">11</text>
    <text x="380" y="210" font-family="sans-serif" font-size="12" text-anchor="end">זמן החניה (שעות)</text>

    <text x="40" y="205" font-family="sans-serif" font-size="10" text-anchor="end">15</text>
    <text x="40" y="175" font-family="sans-serif" font-size="10" text-anchor="end">30</text>
    <text x="40" y="145" font-family="sans-serif" font-size="10" text-anchor="end">45</text>
    <text x="40" y="115" font-family="sans-serif" font-size="10" text-anchor="end">60</text>
    <text x="40" y="85" font-family="sans-serif" font-size="10" text-anchor="end">75</text>
    <text x="20" y="30" font-family="sans-serif" font-size="12" text-anchor="end">התשלום (שקלים)</text>

    <line x1="50" y1="205" x2="140" y2="205" stroke="blue" stroke-width="2"/>
    <circle cx="50" cy="205" r="3" fill="black"/>
    <circle cx="140" cy="205" r="3" fill="black"/>
    <circle cx="140" cy="175" r="3" fill="white" stroke="blue" stroke-width="1.5"/>

    <line x1="140" y1="175" x2="260" y2="175" stroke="blue" stroke-width="2"/>
    <circle cx="140" cy="175" r="3" fill="black"/>
    <circle cx="260" cy="175" r="3" fill="black"/>
    <circle cx="260" cy="85" r="3" fill="white" stroke="blue" stroke-width="1.5"/>

    <line x1="260" y1="85" x2="380" y2="85" stroke="blue" stroke-width="2"/>
    <circle cx="260" cy="85" r="3" fill="black"/>
    <circle cx="380" cy="85" r="3" fill="black"/>
  </symbol>

  <symbol id="מקבילית-ABCD" viewBox="0 0 400 250">
    <rect x="0" y="0" width="400" height="250" fill="#FFFFFF" stroke="#000" stroke-width="1"/>
    <line x1="50" y1="220" x2="380" y2="220" stroke="#000" stroke-width="1.5"/> <line x1="50" y1="220" x2="50" y2="20" stroke="#000" stroke-width="1.5"/> <polygon points="70,220 120,80 320,80 270,220" fill="none" stroke="black" stroke-width="2"/>
    <line x1="70" y1="220" x2="320" y2="80" stroke="gray" stroke-dasharray="5,5" stroke-width="1.5"/> <text x="60" y="230" font-family="sans-serif" font-size="14">A</text>
    <text x="110" y="70" font-family="sans-serif" font-size="14">B</text>
    <text x="330" y="70" font-family="sans-serif" font-size="14">C</text>
    <text x="260" y="230" font-family="sans-serif" font-size="14">D</text>

    <text x="40" y="30" font-family="sans-serif" font-size="12">y</text>
    <text x="390" y="210" font-family="sans-serif" font-size="12">x</text>
  </symbol>

  <symbol id="משולש-שווה-שוקיים" viewBox="0 0 400 250">
    <rect x="0" y="0" width="400" height="250" fill="#FFFFFF" stroke="#000" stroke-width="1"/>
    <polygon points="200,50 100,200 300,200" fill="none" stroke="black" stroke-width="2"/>
    <line x1="100" y1="200" x2="250" y2="125" stroke="gray" stroke-dasharray="5,5" stroke-width="1.5"/>
    <rect x="245" y="125" width="8" height="8" stroke="black" fill="none" stroke-width="1"/> <text x="195" y="40" font-family="sans-serif" font-size="14">A</text>
    <text x="90" y="215" font-family="sans-serif" font-size="14">B</text>
    <text x="310" y="215" font-family="sans-serif" font-size="14">C</text>
    <text x="255" y="115" font-family="sans-serif" font-size="14">D</text>

    <path d="M290 200 A10 10 0 0 0 290 190 L300 200 Z" fill="none" stroke="black" stroke-width="1"/>
    <text x="285" y="195" font-family="sans-serif" font-size="10">65°</text>
  </symbol>

  <symbol id="פרבולה" viewBox="0 0 400 250">
    <rect x="0" y="0" width="400" height="250" fill="#FFFFFF" stroke="#000" stroke-width="1"/>
    <line x1="50" y1="220" x2="380" y2="220" stroke="#000" stroke-width="1.5"/> <line x1="50" y1="220" x2="50" y2="20" stroke="#000" stroke-width="1.5"/> <path d="M 80 220 C 100 100, 200 50, 300 100 C 320 150, 350 220, 370 220" fill="none" stroke="blue" stroke-width="2"/>

    <circle cx="100" cy="220" r="3" fill="black"/>
    <text x="95" y="235" font-family="sans-serif" font-size="14">A</text>
    <circle cx="300" cy="220" r="3" fill="black"/>
    <text x="295" y="235" font-family="sans-serif" font-size="14">B</text>
    <circle cx="200" cy="50" r="3" fill="black"/>
    <text x="195" y="40" font-family="sans-serif" font-size="14">C</text>

    <text x="40" y="30" font-family="sans-serif" font-size="12">y</text>
    <text x="390" y="210" font-family="sans-serif" font-size="12">x</text>
  </symbol>

  <symbol id="גרף-מכוניות" viewBox="0 0 400 250">
    <rect x="0" y="0" width="400" height="250" fill="#FFFFFF" stroke="#000" stroke-width="1"/>
    <line x1="50" y1="220" x2="380" y2="220" stroke="#000" stroke-width="1.5"/> <line x1="50" y1="220" x2="50" y2="20" stroke="#000" stroke-width="1.5"/> <path d="M 50 180 C 150 160, 250 140, 350 120" fill="none" stroke="blue" stroke-width="2"/>
    <text x="100" y="150" font-family="sans-serif" font-size="14">I</text>

    <path d="M 50 80 C 150 100, 250 120, 350 140" fill="none" stroke="red" stroke-width="2"/>
    <text x="100" y="100" font-family="sans-serif" font-size="14">II</text>

    <line x1="250" y1="220" x2="250" y2="130" stroke="gray" stroke-dasharray="3,3" stroke-width="1"/>
    <text x="250" y="235" font-family="sans-serif" font-size="12" text-anchor="middle">2016</text>
    <text x="50" y="235" font-family="sans-serif" font-size="12" text-anchor="middle">2010</text>

    <text x="40" y="30" font-family="sans-serif" font-size="12">מחיר (שקלים)</text>
    <text x="390" y="210" font-family="sans-serif" font-size="12">שנה</text>
  </symbol>

  <symbol id="טרפז-ABCD" viewBox="0 0 400 250">
    <rect x="0" y="0" width="400" height="250" fill="#FFFFFF" stroke="#000" stroke-width="1"/>
    <polygon points="80,200 320,200 280,80 120,80" fill="none" stroke="black" stroke-width="2"/>
    <line x1="120" y1="80" x2="120" y2="200" stroke="blue" stroke-width="1.5"/>
    <rect x="115" y="195" width="8" height="8" stroke="black" fill="none" stroke-width="1"/> <rect x="115" y="80" width="8" height="8" stroke="black" fill="none" stroke-width="1"/> <line x1="120" y1="80" x2="320" y2="200" stroke="gray" stroke-dasharray="5,5" stroke-width="1.5"/>

    <text x="70" y="215" font-family="sans-serif" font-size="14">A</text>
    <text x="330" y="215" font-family="sans-serif" font-size="14">B</text>
    <text x="285" y="70" font-family="sans-serif" font-size="14">C</text>
    <text x="110" y="70" font-family="sans-serif" font-size="14">D</text>
    <text x="115" y="215" font-family="sans-serif" font-size="14">E</text>
  </symbol>

  <symbol id="לוח-קליעה" viewBox="0 0 200 200">
    <rect x="0" y="0" width="200" height="200" fill="#FFFFFF" stroke="#000" stroke-width="1"/>
    <circle cx="100" cy="100" r="90" fill="none" stroke="black" stroke-width="2"/>
    <circle cx="100" cy="100" r="50" fill="none" stroke="black" stroke-width="2"/>
    <circle cx="100" cy="100" r="25" fill="none" stroke="black" stroke-width="2"/>

    <line x1="100" y1="10" x2="100" y2="190" stroke="black" stroke-width="1"/>
    <line x1="100" y1="100" x2="185" y2="150" stroke="black" stroke-width="1"/>
    <line x1="100" y1="100" x2="15" y2="150" stroke="black" stroke-width="1"/>

    <text x="100" y="105" font-family="sans-serif" font-size="18" text-anchor="middle" fill="#000">100</text>
    <text x="150" y="60" font-family="sans-serif" font-size="14" text-anchor="middle" fill="#000">80</text>
    <text x="50" y="60" font-family="sans-serif" font-size="14" text-anchor="middle" fill="#000">40</text>
    <text x="100" y="170" font-family="sans-serif" font-size="14" text-anchor="middle" fill="#000">60</text>
  </symbol>

  <symbol id="התפלגות-נורמלית" viewBox="0 0 400 250">
    <rect x="0" y="0" width="400" height="250" fill="#FFFFFF" stroke="#000" stroke-width="1"/>
    <line x1="20" y1="220" x2="380" y2="220" stroke="#000" stroke-width="1.5"/> <path d="M 20 220 C 50 180, 100 100, 200 30 C 300 100, 350 180, 380 220" fill="none" stroke="blue" stroke-width="2"/>

    <line x1="200" y1="30" x2="200" y2="220" stroke="gray" stroke-dasharray="3,3" stroke-width="1"/>
    <line x1="150" y1="80" x2="150" y2="220" stroke="gray" stroke-dasharray="3,3" stroke-width="1"/>
    <line x1="250" y1="80" x2="250" y2="220" stroke="gray" stroke-dasharray="3,3" stroke-width="1"/>
    <line x1="100" y1="150" x2="100" y2="220" stroke="gray" stroke-dasharray="3,3" stroke-width="1"/>
    <line x1="300" y1="150" x2="300" y2="220" stroke="gray" stroke-dasharray="3,3" stroke-width="1"/>
    <line x1="70" y1="190" x2="70" y2="220" stroke="gray" stroke-dasharray="3,3" stroke-width="1"/>
    <line x1="330" y1="190" x2="330" y2="220" stroke="gray" stroke-dasharray="3,3" stroke-width="1"/>

    <text x="200" y="70" font-family="sans-serif" font-size="10" text-anchor="middle">19%</text>
    <text x="200" y="90" font-family="sans-serif" font-size="10" text-anchor="middle">19%</text>
    <text x="175" y="120" font-family="sans-serif" font-size="10" text-anchor="middle">15%</text>
    <text x="225" y="120" font-family="sans-serif" font-size="10" text-anchor="middle">15%</text>
    <text x="125" y="170" font-family="sans-serif" font-size="10" text-anchor="middle">9%</text>
    <text x="275" y="170" font-family="sans-serif" font-size="10" text-anchor="middle">9%</text>
    <text x="85" y="200" font-family="sans-serif" font-size="10" text-anchor="middle">5%</text>
    <text x="315" y="200" font-family="sans-serif" font-size="10" text-anchor="middle">5%</text>
    <text x="55" y="210" font-family="sans-serif" font-size="10" text-anchor="middle">1.5%</text>
    <text x="345" y="210" font-family="sans-serif" font-size="10" text-anchor="middle">1.5%</text>
    <text x="35" y="215" font-family="sans-serif" font-size="10" text-anchor="middle">0.5%</text>
    <text x="365" y="215" font-family="sans-serif" font-size="10" text-anchor="middle">0.5%</text>

    <text x="390" y="210" font-family="sans-serif" font-size="12">x</text>
  </symbol>

  <symbol id="משולש-ABC" viewBox="0 0 400 250">
    <rect x="0" y="0" width="400" height="250" fill="#FFFFFF" stroke="#000" stroke-width="1"/>
    <line x1="50" y1="220" x2="380" y2="220" stroke="#000" stroke-width="1.5"/> <line x1="50" y1="220" x2="50" y2="20" stroke="#000" stroke-width="1.5"/> <polygon points="50,100 300,50 250,150" fill="none" stroke="black" stroke-width="2"/>
    <line x1="50" y1="100" x2="300" y2="50" stroke="gray" stroke-dasharray="5,5" stroke-width="1.5"/> <rect x="240" y="140" width="10" height="10" stroke="black" fill="none" stroke-width="1"/>

    <circle cx="150" cy="220" r="3" fill="black"/>
    <text x="145" y="235" font-family="sans-serif" font-size="14">D</text>

    <circle cx="50" cy="200" r="3" fill="black"/>
    <text x="35" y="205" font-family="sans-serif" font-size="14">K</text>
    <line x1="50" y1="200" x2="250" y2="150" stroke="gray" stroke-dasharray="5,5" stroke-width="1.5"/> <text x="40" y="30" font-family="sans-serif" font-size="12">y</text>
    <text x="390" y="210" font-family="sans-serif" font-size="12">x</text>
    <text x="40" y="95" font-family="sans-serif" font-size="14">B</text>
    <text x="305" y="45" font-family="sans-serif" font-size="14">A</text>
    <text x="255" y="145" font-family="sans-serif" font-size="14">C</text>
  </symbol>

  <symbol id="מעגל-M" viewBox="0 0 400 250">
    <rect x="0" y="0" width="400" height="250" fill="#FFFFFF" stroke="#000" stroke-width="1"/>
    <line x1="50" y1="220" x2="380" y2="220" stroke="#000" stroke-width="1.5"/> <line x1="50" y1="220" x2="50" y2="20" stroke="#000" stroke-width="1.5"/> <circle cx="200" cy="120" r="100" fill="none" stroke="black" stroke-width="2"/>

    <circle cx="200" cy="120" r="3" fill="black"/>
    <text x="205" y="115" font-family="sans-serif" font-size="14">M</text>

    <line x1="100" y1="140" x2="300" y2="100" stroke="blue" stroke-width="1.5"/>
    <circle cx="100" cy="140" r="3" fill="black"/>
    <text x="95" y="155" font-family="sans-serif" font-size="14">B</text>
    <circle cx="300" cy="100" r="3" fill="black"/>
    <text x="305" y="95" font-family="sans-serif" font-size="14">C</text>

    <line x1="50" y1="180" x2="100" y2="140" stroke="green" stroke-width="1.5"/>
    <circle cx="50" cy="180" r="3" fill="black"/>
    <text x="40" y="185" font-family="sans-serif" font-size="14">A</text>

    <line x1="50" y1="100" x2="300" y2="100" stroke="gray" stroke-dasharray="5,5" stroke-width="1.5"/>

    <text x="40" y="30" font-family="sans-serif" font-size="12">y</text>
    <text x="390" y="210" font-family="sans-serif" font-size="12">x</text>
  </symbol>

  <symbol id="גרף-פונקציה" viewBox="0 0 400 250">
    <rect x="0" y="0" width="400" height="250" fill="#FFFFFF" stroke="#000" stroke-width="1"/>
    <line x1="50" y1="125" x2="380" y2="125" stroke="#000" stroke-width="1.5"/> <line x1="200" y1="20" x2="200" y2="220" stroke="#000" stroke-width="1.5"/> <path d="M 210 220 L 220 180 C 250 100, 300 80, 350 100 L 380 150" fill="none" stroke="blue" stroke-width="2"/>
    <path d="M 190 20 L 180 60 C 150 140, 100 160, 50 140 L 20 120" fill="none" stroke="blue" stroke-width="2"/>

    <text x="40" y="30" font-family="sans-serif" font-size="12">y</text>
    <text x="390" y="115" font-family="sans-serif" font-size="12">x</text>
  </symbol>

  <symbol id="גרף-פונקציה-וקיצון" viewBox="0 0 400 250">
    <rect x="0" y="0" width="400" height="250" fill="#FFFFFF" stroke="#000" stroke-width="1"/>
    <line x1="50" y1="220" x2="380" y2="220" stroke="#000" stroke-width="1.5"/> <line x1="50" y1="220" x2="50" y2="20" stroke="#000" stroke-width="1.5"/> <path d="M 20 100 C 50 50, 100 20, 150 50 C 200 80, 250 150, 300 200 C 350 220, 380 230" fill="none" stroke="blue" stroke-width="2"/>

    <circle cx="100" cy="20" r="3" fill="black"/>
    <text x="95" y="15" font-family="sans-serif" font-size="14">A</text>
    <circle cx="250" cy="150" r="3" fill="black"/>
    <text x="245" y="165" font-family="sans-serif" font-size="14">B</text>

    <line x1="50" y1="150" x2="350" y2="150" stroke="gray" stroke-dasharray="5,5" stroke-width="1.5"/>

    <path d="M 50 150 L 50 100 C 50 50, 100 20, 150 50 C 200 80, 250 150 L 250 150 Z" fill="url(#diagonal-hatch)" stroke="none"/>
    <defs>
      <pattern id="diagonal-hatch" patternUnits="userSpaceOnUse" width="4" height="4">
        <path d="M-1,1 l2,-2 M0,4 l4,-4 M3,5 l2,-2" stroke="#888888" stroke-width="1"/>
      </pattern>
    </defs>

    <text x="40" y="30" font-family="sans-serif" font-size="12">y</text>
    <text x="390" y="210" font-family="sans-serif" font-size="12">x</text>
  </symbol>

  <symbol id="מלבן-וריבוע" viewBox="0 0 400 250">
    <rect x="0" y="0" width="400" height="250" fill="#FFFFFF" stroke="#000" stroke-width="1"/>
    <rect x="100" y="100" width="150" height="100" fill="none" stroke="black" stroke-width="2"/>
    <text x="105" y="115" font-family="sans-serif" font-size="14">A</text>
    <text x="105" y="215" font-family="sans-serif" font-size="14">B</text>
    <text x="255" y="215" font-family="sans-serif" font-size="14">C</text>
    <text x="255" y="115" font-family="sans-serif" font-size="14">D</text>

    <rect x="250" y="0" width="100" height="100" fill="none" stroke="black" stroke-width="2"/>
    <text x="255" y="15" font-family="sans-serif" font-size="14">D</text>
    <text x="345" y="15" font-family="sans-serif" font-size="14">E</text>
    <text x="345" y="115" font-family="sans-serif" font-size="14">F</text>
    <text x="255" y="115" font-family="sans-serif" font-size="14">G</text>

    <line x1="250" y1="200" x2="350" y2="0" stroke="gray" stroke-width="1.5"/>
    <text x="290" y="100" font-family="sans-serif" font-size="12">CE=15</text>

    <line x1="260" y1="150" x2="260" y2="200" stroke="black" stroke-width="1"/>
    <line x1="255" y1="155" x2="265" y2="155" stroke="black" stroke-width="1"/>
    <line x1="255" y1="195" x2="265" y2="195" stroke="black" stroke-width="1"/>
    <text x="270" y="175" font-family="sans-serif" font-size="14">x</text>
  </symbol>

</svg>
